<?xml version="1.0" ?><svg height="32px" style="enable-background:new 0 0 32 32;" version="1.1" viewBox="0 0 32 32" width="32px" xml:space="preserve" xmlns="http://www.w3.org/2000/svg" xmlns:xlink="http://www.w3.org/1999/xlink"><style type="text/css">
	.st0{fill:none;stroke:#6b879a;stroke-width:2;stroke-linecap:round;stroke-linejoin:round;stroke-miterlimit:10;}
	.st1{fill:#6b879a;}
</style><g id="Layer_2"/><g id="Layer_1"><g><path class="st0" d="M25,15c0-4.97058-4.02942-9-9-9s-9,4.02942-9,9c0,3.53174,2.03925,6.57977,5,8.05341V29h2v2h4v-2h2v-5.94659    C22.96075,21.57977,25,18.53174,25,15z"/><line class="st0" x1="16" x2="16" y1="1" y2="3"/><line class="st0" x1="6.1005" x2="7.51472" y1="5.1005" y2="6.51472"/><line class="st0" x1="2" x2="4" y1="15" y2="15"/><line class="st0" x1="30" x2="28" y1="15" y2="15"/><line class="st0" x1="25.89949" x2="24.48528" y1="5.1005" y2="6.51472"/><polyline class="st0" points="19,15 16,14 16,16 13,15   "/></g></g></svg>
