<?xml version="1.0" standalone="no"?>
<!DOCTYPE svg PUBLIC "-//W3C//DTD SVG 20010904//EN"
 "http://www.w3.org/TR/2001/REC-SVG-20010904/DTD/svg10.dtd">
<svg version="1.0" xmlns="http://www.w3.org/2000/svg"
 width="4096.000000pt" height="4096.000000pt" viewBox="0 0 4096.000000 4096.000000"
 preserveAspectRatio="xMidYMid meet">
<metadata>
Created by potrace 1.14, written by Peter Selinger 2001-2017
</metadata>
<g transform="translate(0.000000,4096.000000) scale(0.100000,-0.100000)"
fill="#000000" stroke="none">
<path d="M20309 40949 c-495 -72 -902 -416 -1049 -886 -60 -195 -58 -131 -59
-1658 0 -1321 1 -1406 19 -1500 36 -199 100 -353 211 -515 236 -343 628 -548
1049 -548 65 0 138 4 162 8 24 5 62 11 85 15 143 21 378 124 509 224 260 196
421 444 497 766 21 89 21 100 24 1515 2 1356 1 1430 -16 1525 -101 538 -490
935 -1021 1042 -86 17 -328 24 -411 12z"/>
<path d="M7560 35685 c-251 -53 -460 -161 -632 -328 -262 -255 -395 -563 -396
-922 -1 -293 86 -550 267 -790 48 -63 1892 -1913 1996 -2001 220 -189 496
-293 796 -299 167 -3 281 13 428 61 463 154 793 548 866 1034 12 83 13 314 0
375 -49 244 -120 408 -248 581 -62 83 -1944 1967 -2037 2039 -180 140 -361
220 -587 260 -121 21 -327 17 -453 -10z"/>
<path d="M32905 35685 c-222 -46 -379 -119 -550 -254 -74 -59 -1917 -1897
-1996 -1991 -98 -116 -180 -262 -227 -406 -57 -171 -67 -238 -66 -434 2 -372
161 -706 459 -965 37 -32 177 -125 225 -149 100 -51 270 -110 349 -122 14 -2
50 -7 80 -12 56 -10 288 -8 355 2 222 35 450 138 626 285 92 77 1931 1921
1991 1996 141 178 218 350 263 590 20 106 16 350 -8 460 -95 434 -362 753
-786 938 -33 14 -165 53 -213 63 -159 31 -349 31 -502 -1z"/>
<path d="M20058 34555 c-2 -1 -82 -6 -178 -10 -96 -4 -195 -8 -220 -10 -25 -2
-85 -6 -135 -10 -49 -3 -103 -8 -120 -10 -16 -2 -66 -7 -110 -10 -98 -7 -176
-15 -295 -30 -19 -2 -53 -7 -75 -9 -196 -25 -292 -37 -305 -41 -8 -2 -37 -6
-65 -10 -27 -3 -72 -10 -100 -15 -27 -5 -66 -12 -85 -14 -19 -2 -73 -11 -120
-20 -47 -8 -98 -18 -115 -21 -48 -7 -309 -61 -440 -90 -66 -15 -127 -28 -135
-30 -218 -48 -745 -194 -1010 -280 -388 -127 -819 -288 -1097 -411 -18 -8 -48
-20 -65 -28 -391 -170 -826 -386 -1163 -576 -224 -127 -481 -281 -615 -368
-139 -90 -394 -261 -485 -325 -178 -126 -610 -450 -635 -477 -4 -4 -77 -63
-120 -97 -43 -33 -259 -217 -304 -258 -6 -5 -31 -28 -56 -49 -357 -311 -797
-751 -1134 -1136 -168 -191 -162 -184 -262 -305 -273 -332 -491 -622 -737
-982 -42 -62 -77 -115 -77 -118 0 -3 -5 -11 -11 -18 -23 -26 -248 -382 -329
-522 -114 -196 -220 -385 -279 -495 -91 -172 -338 -672 -346 -700 -1 -3 -13
-30 -27 -60 -192 -411 -435 -1062 -592 -1585 -63 -212 -170 -604 -182 -672 -2
-12 -16 -71 -30 -130 -39 -167 -125 -596 -139 -703 -4 -24 -8 -47 -10 -50 -2
-3 -6 -30 -10 -60 -4 -30 -11 -77 -16 -105 -5 -27 -12 -72 -15 -100 -3 -27 -8
-61 -10 -75 -7 -41 -22 -151 -29 -210 -3 -30 -8 -66 -10 -80 -2 -14 -7 -59
-10 -100 -4 -41 -8 -82 -10 -90 -1 -8 -6 -55 -10 -105 -4 -49 -8 -103 -10
-120 -3 -16 -7 -75 -10 -130 -3 -55 -8 -118 -10 -140 -26 -241 -26 -1360 0
-1610 2 -22 7 -83 10 -135 3 -52 8 -111 10 -130 2 -19 6 -71 10 -115 6 -76 9
-103 20 -205 3 -25 8 -65 10 -90 3 -25 7 -57 9 -73 2 -15 7 -55 11 -90 4 -34
8 -69 10 -77 4 -25 14 -92 20 -140 5 -39 15 -99 31 -190 2 -14 7 -45 10 -70 3
-25 8 -54 10 -65 2 -11 9 -47 14 -80 6 -33 17 -91 25 -130 8 -38 17 -86 20
-105 3 -19 11 -55 17 -80 6 -25 12 -54 13 -65 2 -11 15 -72 30 -135 14 -63 28
-126 31 -140 3 -14 7 -33 10 -42 3 -9 6 -25 8 -35 2 -10 12 -47 21 -83 9 -36
18 -72 20 -80 4 -18 61 -231 109 -405 45 -162 223 -706 256 -780 5 -11 16 -40
24 -65 9 -25 22 -63 30 -85 21 -57 155 -394 171 -430 7 -16 37 -84 65 -150 29
-66 72 -165 97 -220 48 -106 305 -625 351 -710 15 -27 49 -90 75 -139 66 -122
214 -375 314 -536 46 -74 89 -144 96 -155 28 -46 293 -443 319 -480 16 -22 58
-79 92 -128 35 -48 72 -99 82 -113 36 -50 188 -250 231 -304 24 -30 54 -68 67
-85 175 -223 504 -603 704 -813 240 -252 630 -632 786 -765 12 -10 35 -30 51
-46 27 -24 236 -205 275 -238 110 -91 293 -238 369 -295 53 -40 98 -75 101
-78 3 -3 89 -68 193 -143 308 -227 740 -511 1075 -707 l72 -42 1 -3457 c0
-1901 2 -3476 4 -3502 10 -134 64 -328 127 -454 187 -372 518 -619 933 -695
91 -17 165 -19 794 -20 382 0 696 -2 698 -3 1 -2 3 -316 4 -698 1 -624 3 -705
19 -799 69 -397 327 -743 688 -924 69 -35 227 -92 282 -103 168 -32 143 -32
2890 -30 2015 2 2715 6 2745 14 22 7 51 14 65 17 141 29 297 99 440 197 231
159 405 396 490 666 57 183 58 196 59 957 1 385 3 701 4 703 2 1 318 3 703 4
762 1 773 2 959 60 320 99 603 338 753 634 68 136 123 319 136 455 3 30 5
1613 6 3517 l0 3461 83 48 c340 195 971 619 1267 851 246 192 334 262 460 367
80 66 147 123 150 126 3 3 25 23 50 45 530 466 994 940 1416 1445 71 85 143
173 159 194 17 21 35 44 40 50 46 50 360 469 458 611 103 149 377 565 431 655
32 52 75 124 97 159 21 34 39 65 39 67 0 3 11 21 23 42 13 20 59 100 102 177
395 707 727 1457 977 2210 27 83 51 155 52 160 2 6 6 17 9 25 3 8 15 47 25 85
11 39 34 115 50 170 17 55 38 127 46 160 14 50 68 253 81 305 25 93 121 516
130 573 3 18 16 88 30 157 32 164 63 343 70 405 4 28 8 57 10 65 2 8 7 38 10
65 3 28 8 61 11 75 2 14 7 43 9 64 3 22 7 51 10 65 2 14 7 57 10 96 4 38 8 72
10 75 2 3 6 46 10 95 4 50 9 98 11 109 2 10 6 53 10 95 3 42 7 92 9 111 2 19
7 80 10 135 4 55 8 118 10 140 19 212 27 1062 12 1370 -11 228 -20 370 -32
510 -3 28 -7 77 -10 110 -2 33 -7 78 -10 100 -2 22 -7 65 -10 95 -3 30 -7 66
-9 80 -3 14 -7 56 -11 93 -3 37 -8 78 -11 90 -2 12 -6 42 -9 67 -3 25 -7 56
-10 70 -2 14 -6 45 -10 70 -3 25 -8 56 -10 70 -2 14 -7 45 -11 70 -3 24 -7 47
-9 50 -1 3 -6 32 -10 65 -3 32 -8 62 -10 65 -2 3 -6 23 -9 45 -3 22 -8 51 -11
65 -8 43 -15 83 -25 135 -8 48 -77 374 -85 405 -2 8 -12 56 -24 105 -11 50
-36 153 -56 230 -20 77 -38 149 -41 160 -2 11 -20 74 -39 140 -20 66 -37 127
-39 135 -14 56 -106 348 -161 510 -58 171 -79 232 -111 315 -4 11 -8 22 -9 25
-1 3 -5 14 -10 25 -4 11 -29 76 -56 145 -48 126 -153 385 -182 450 -9 19 -27
60 -40 90 -314 704 -646 1308 -1057 1926 -91 137 -256 375 -282 409 -5 6 -58
78 -120 160 -95 129 -212 280 -270 350 -9 11 -62 76 -118 145 -57 69 -128 154
-159 189 -252 290 -405 454 -646 695 -195 195 -300 296 -465 446 -51 47 -98
90 -104 95 -67 62 -394 337 -535 449 -242 193 -543 413 -801 587 -85 57 -156
107 -158 111 -2 4 -8 8 -12 8 -5 0 -53 29 -107 63 -226 147 -572 350 -858 504
-91 49 -570 287 -660 328 -199 90 -278 125 -437 191 -98 41 -180 74 -183 74
-3 0 -24 9 -48 19 -64 30 -556 210 -612 225 -5 2 -17 6 -25 9 -8 3 -89 29
-180 57 -91 29 -172 54 -180 57 -8 2 -17 5 -20 5 -3 0 -15 4 -27 9 -43 16
-464 130 -610 164 -81 20 -175 42 -208 50 -33 8 -72 17 -87 20 -16 3 -38 7
-50 10 -93 20 -146 31 -303 61 -154 29 -166 31 -305 54 -36 5 -76 12 -90 14
-44 8 -373 55 -425 60 -103 12 -141 16 -175 21 -52 6 -157 16 -315 30 -79 6
-146 11 -285 20 -52 3 -129 8 -170 11 -80 6 -1046 14 -1052 9z m987 -2569 c28
-2 100 -7 160 -11 61 -3 121 -8 135 -10 14 -2 59 -6 100 -10 41 -3 91 -8 110
-10 19 -3 60 -7 90 -10 30 -4 66 -8 80 -10 14 -2 54 -7 90 -10 36 -4 74 -9 85
-11 11 -3 38 -7 60 -10 22 -2 56 -7 75 -10 19 -4 49 -8 65 -11 42 -6 195 -32
225 -38 14 -3 61 -12 105 -20 119 -22 222 -43 300 -61 128 -30 430 -105 460
-114 40 -13 177 -52 190 -54 39 -7 451 -143 615 -203 586 -213 1282 -546 1763
-844 43 -27 81 -49 83 -49 12 0 509 -330 569 -378 6 -4 26 -18 45 -32 36 -24
298 -221 328 -245 10 -8 55 -44 102 -81 47 -37 101 -81 120 -98 20 -17 60 -51
90 -76 202 -168 393 -344 630 -580 91 -91 212 -217 270 -280 58 -62 112 -121
120 -130 25 -26 142 -162 190 -220 25 -30 59 -70 76 -90 116 -133 396 -505
560 -745 192 -279 396 -611 530 -861 20 -38 49 -91 64 -119 34 -61 198 -388
233 -465 69 -150 93 -206 153 -349 115 -276 130 -314 197 -501 87 -241 137
-394 203 -625 18 -66 38 -133 43 -150 12 -37 100 -385 111 -440 4 -22 22 -107
39 -190 17 -82 33 -168 36 -190 3 -22 8 -46 11 -54 2 -8 7 -30 10 -50 3 -20 7
-42 9 -49 3 -7 7 -40 11 -75 3 -34 8 -65 10 -68 5 -8 37 -240 50 -354 3 -27 7
-63 9 -80 2 -16 7 -59 10 -95 4 -36 8 -81 11 -100 2 -19 6 -73 10 -120 3 -47
7 -103 9 -125 26 -262 26 -1163 0 -1435 -1 -19 -6 -73 -10 -120 -3 -47 -8
-101 -10 -120 -2 -19 -6 -64 -10 -100 -4 -36 -8 -76 -10 -90 -2 -14 -6 -50 -9
-80 -9 -83 -22 -184 -31 -240 -3 -14 -9 -59 -16 -100 -6 -41 -12 -84 -14 -95
-3 -17 -16 -91 -40 -230 -3 -16 -8 -37 -10 -45 -3 -8 -7 -33 -10 -55 -4 -22
-13 -68 -21 -103 -7 -34 -16 -76 -19 -94 -3 -17 -8 -35 -10 -38 -3 -4 -7 -23
-10 -41 -3 -19 -21 -97 -41 -174 -19 -77 -37 -149 -39 -160 -5 -20 -56 -202
-80 -285 -54 -185 -131 -415 -225 -675 -69 -191 -291 -716 -339 -802 -6 -10
-50 -99 -99 -198 -49 -99 -103 -205 -119 -235 -605 -1112 -1349 -2053 -2258
-2854 -160 -141 -176 -155 -288 -246 -10 -8 -28 -23 -40 -34 -12 -10 -38 -30
-57 -45 -19 -14 -37 -28 -40 -32 -3 -3 -59 -46 -125 -97 -66 -50 -124 -95
-130 -99 -10 -8 -85 -63 -150 -110 -71 -51 -526 -354 -590 -392 -38 -24 -79
-48 -90 -54 -10 -7 -37 -23 -60 -37 -22 -14 -56 -34 -76 -45 -20 -11 -110 -61
-200 -111 -90 -50 -231 -126 -313 -168 -171 -88 -236 -129 -321 -200 -244
-203 -406 -489 -450 -796 -11 -79 -14 -638 -14 -3304 -1 -1765 -2 -3211 -4
-3212 -2 -2 -316 -4 -698 -4 -382 -1 -714 -5 -739 -10 -25 -4 -63 -11 -85 -14
-64 -10 -174 -44 -264 -83 -274 -119 -499 -331 -634 -599 -30 -60 -111 -273
-107 -282 1 -1 -3 -33 -9 -70 -19 -113 -19 -137 -20 -829 l-1 -673 -1280 0
-1280 0 -1 673 c-1 713 -1 727 -19 828 -80 461 -421 853 -864 995 -191 61
-216 63 -975 64 -382 0 -696 2 -698 3 -1 2 -4 1466 -6 3253 -1 1787 -6 3260
-10 3274 -4 14 -10 40 -13 59 -3 19 -9 44 -14 55 -4 12 -8 26 -9 31 -6 46 -65
191 -115 280 -126 226 -305 396 -551 525 -44 23 -86 47 -92 52 -7 6 -13 8 -13
5 0 -7 -239 122 -418 225 -46 26 -88 48 -93 48 -5 0 -9 5 -9 10 0 6 -5 10 -10
10 -14 0 -512 310 -530 330 -3 3 -25 19 -50 35 -65 43 -284 198 -290 205 -3 3
-21 17 -40 30 -167 116 -616 487 -825 681 -33 31 -73 69 -90 83 -102 92 -503
501 -587 598 -10 13 -41 48 -68 78 -59 66 -72 80 -164 190 -39 47 -74 87 -77
90 -7 6 -237 298 -264 334 -11 16 -41 56 -66 90 -25 33 -63 86 -85 116 -165
225 -397 584 -546 845 -38 66 -74 129 -80 140 -86 147 -398 768 -398 790 0 3
-13 34 -30 69 -56 123 -161 382 -235 581 -40 106 -185 538 -190 568 -2 10 -15
55 -29 100 -22 72 -44 151 -52 182 -1 6 -12 45 -24 87 -11 43 -23 85 -25 95
-2 10 -18 79 -35 153 -18 74 -34 144 -36 154 -2 11 -13 65 -25 120 -29 140
-28 136 -34 181 -4 22 -10 56 -15 75 -5 19 -11 53 -14 75 -3 22 -8 51 -10 65
-2 14 -8 48 -12 75 -4 28 -8 57 -10 65 -3 16 -13 85 -20 138 -2 17 -6 47 -8
65 -3 17 -8 55 -11 82 -3 28 -7 68 -10 90 -3 22 -7 67 -10 100 -4 33 -8 76
-10 95 -4 32 -7 69 -20 240 -26 350 -27 1122 -1 1440 3 25 7 83 11 130 9 111
15 180 30 310 2 19 7 60 10 90 4 30 8 66 10 80 2 14 6 45 10 70 3 25 8 56 10
70 3 14 7 45 10 70 3 25 7 56 10 70 3 14 7 39 9 55 12 76 17 103 26 150 5 28
12 64 15 80 4 30 20 111 29 150 2 11 16 76 30 145 74 347 252 972 349 1225 9
22 34 92 57 155 22 63 45 124 50 135 5 11 33 81 63 155 116 289 344 776 457
975 13 22 36 65 53 95 134 248 267 466 470 770 222 334 558 772 780 1020 18
20 50 56 71 80 275 314 710 739 1046 1020 29 25 58 50 64 55 6 6 34 28 61 50
28 21 52 42 55 45 3 4 37 31 75 60 39 30 108 84 155 120 89 68 272 203 350
256 363 248 581 383 933 578 151 83 552 285 667 335 30 13 82 37 115 52 130
60 382 161 570 230 61 22 128 47 150 56 78 30 481 159 537 172 4 1 29 9 55 17
41 12 203 56 253 69 8 2 61 15 117 29 57 15 156 38 220 52 159 35 159 35 233
49 14 3 36 7 50 10 14 3 41 8 60 11 19 2 55 9 80 14 51 11 217 38 270 45 19 2
53 7 75 10 77 12 123 19 220 30 28 3 66 7 85 10 69 9 237 25 315 30 44 3 103
8 130 10 28 2 118 7 200 11 83 3 151 8 153 9 5 5 867 -4 927 -9z"/>
<path d="M20295 24305 c-125 -20 -138 -23 -232 -56 -332 -117 -597 -356 -738
-664 -49 -107 -61 -136 -70 -175 -1 -3 -7 -23 -13 -45 -6 -22 -14 -58 -18 -80
-3 -22 -10 -60 -14 -85 -5 -25 -9 -245 -10 -490 0 -244 -2 -446 -5 -448 -3 -3
-2117 696 -2170 718 -11 5 -33 12 -50 16 -16 4 -34 8 -40 10 -133 34 -410 40
-545 10 -443 -97 -784 -387 -948 -806 -97 -247 -105 -565 -21 -835 72 -231
208 -433 401 -597 136 -116 264 -182 495 -258 87 -28 167 -56 178 -60 17 -7
1169 -392 1185 -396 3 0 12 -3 20 -7 8 -3 60 -20 115 -37 55 -17 109 -35 120
-40 11 -5 173 -59 360 -120 187 -62 349 -116 360 -120 11 -5 92 -32 180 -60
88 -28 169 -55 180 -60 16 -7 327 -111 345 -115 3 -1 12 -4 20 -8 8 -3 155
-51 325 -107 171 -56 319 -106 330 -110 44 -20 165 -51 249 -64 96 -15 291
-18 359 -6 23 5 61 11 84 15 143 21 378 124 509 224 261 197 423 448 496 766
19 82 21 130 25 565 3 261 6 477 8 478 2 2 270 -85 597 -194 326 -109 595
-199 598 -200 3 0 12 -3 20 -7 14 -5 209 -70 220 -72 3 -1 12 -4 20 -8 8 -3
155 -51 325 -107 171 -56 319 -105 330 -110 42 -18 123 -41 200 -56 90 -18
337 -27 405 -14 25 5 64 11 87 15 143 21 378 124 509 224 332 251 510 597 519
1006 10 428 -183 813 -534 1068 -103 75 -267 149 -491 222 -113 37 -214 71
-225 75 -11 5 -65 23 -120 41 -55 17 -109 35 -120 40 -11 4 -119 40 -240 79
-121 40 -229 76 -240 80 -11 5 -65 23 -120 41 -55 17 -109 35 -120 40 -11 4
-173 58 -360 119 -187 62 -349 116 -360 120 -11 5 -173 59 -360 120 -187 62
-349 116 -360 120 -23 10 -982 329 -1005 335 -8 2 -41 13 -73 24 -147 52 -405
72 -572 46z"/>
<path d="M2395 23030 c-22 -4 -58 -11 -80 -14 -65 -10 -174 -45 -264 -83 -274
-119 -499 -331 -633 -598 -37 -72 -94 -226 -103 -273 -2 -15 -10 -52 -16 -82
-6 -30 -12 -119 -14 -197 -6 -281 66 -520 226 -753 193 -281 483 -465 834
-530 95 -18 176 -19 1490 -18 1547 0 1501 -2 1702 69 332 117 597 356 738 664
49 107 61 136 70 175 1 3 7 23 13 45 6 22 14 56 17 75 3 19 9 60 14 90 15 86
10 274 -10 379 -99 542 -498 940 -1044 1041 -94 18 -178 19 -1500 18 -770 0
-1418 -4 -1440 -8z"/>
<path d="M35669 23029 c-422 -62 -782 -319 -970 -694 -135 -267 -168 -542
-106 -865 3 -14 19 -67 36 -118 150 -448 543 -781 1011 -856 82 -13 285 -15
1520 -13 1035 2 1436 6 1465 14 22 7 51 14 65 17 349 72 682 334 851 671 135
267 168 542 106 865 -11 55 -68 213 -103 282 -50 99 -141 230 -212 305 -67 69
-229 203 -248 203 -6 0 -17 6 -23 14 -35 42 -295 140 -441 166 -99 17 -188 18
-1500 18 -767 0 -1420 -4 -1451 -9z"/>
</g>
</svg>
